<?xml version="1.0" encoding="UTF-8"?>
<svg id="Layer_2" data-name="Layer 2" xmlns="http://www.w3.org/2000/svg" xmlns:xlink="http://www.w3.org/1999/xlink" viewBox="0 0 142.7 137.24">
  <defs>
    <style>
      .cls-1 {
        fill: url(#linear-gradient-15);
      }

      .cls-2 {
        fill: url(#linear-gradient-13);
      }

      .cls-3 {
        fill: url(#linear-gradient-2);
      }

      .cls-4 {
        fill: url(#linear-gradient-10);
      }

      .cls-5 {
        fill: url(#linear-gradient-12);
      }

      .cls-6 {
        fill: url(#linear-gradient-4);
      }

      .cls-7 {
        fill: url(#linear-gradient-3);
      }

      .cls-8 {
        fill: url(#linear-gradient-5);
      }

      .cls-9 {
        fill: url(#linear-gradient-8);
      }

      .cls-10 {
        fill: url(#linear-gradient-14);
      }

      .cls-11 {
        fill: url(#linear-gradient-7);
      }

      .cls-12 {
        fill: url(#linear-gradient-9);
      }

      .cls-13 {
        fill: url(#linear-gradient-11);
      }

      .cls-14 {
        fill: url(#linear-gradient-6);
      }

      .cls-15 {
        fill: url(#linear-gradient-16);
      }

      .cls-16 {
        fill: url(#linear-gradient);
      }
    </style>
    <linearGradient id="linear-gradient" x1="56.17" y1="-33.31" x2="51.22" y2="352.34" gradientUnits="userSpaceOnUse">
      <stop offset="0" stop-color="#fff"/>
      <stop offset=".12" stop-color="#fafafa"/>
      <stop offset=".27" stop-color="#ebebeb"/>
      <stop offset=".43" stop-color="#d3d3d3"/>
      <stop offset=".6" stop-color="#b2b2b2"/>
      <stop offset=".78" stop-color="#868686"/>
      <stop offset=".96" stop-color="#535353"/>
      <stop offset="1" stop-color="#454545"/>
    </linearGradient>
    <linearGradient id="linear-gradient-2" x1="67.26" y1="-33.17" x2="62.31" y2="352.48" xlink:href="#linear-gradient"/>
    <linearGradient id="linear-gradient-3" x1="75.14" y1="-33.07" x2="70.19" y2="352.58" xlink:href="#linear-gradient"/>
    <linearGradient id="linear-gradient-4" x1="39.41" y1="-33.53" x2="34.46" y2="352.12" xlink:href="#linear-gradient"/>
    <linearGradient id="linear-gradient-5" x1="67.21" y1="-33.17" x2="62.26" y2="352.48" xlink:href="#linear-gradient"/>
    <linearGradient id="linear-gradient-6" x1="68.55" y1="-33.15" x2="63.6" y2="352.5" xlink:href="#linear-gradient"/>
    <linearGradient id="linear-gradient-7" x1="72.52" y1="34.32" x2="69.69" y2="254.56" xlink:href="#linear-gradient"/>
    <linearGradient id="linear-gradient-8" x1="72.52" y1="34.32" x2="69.69" y2="254.56" xlink:href="#linear-gradient"/>
    <linearGradient id="linear-gradient-9" x1="72.52" y1="34.32" x2="69.69" y2="254.56" xlink:href="#linear-gradient"/>
    <linearGradient id="linear-gradient-10" x1="72.52" y1="34.32" x2="69.69" y2="254.56" xlink:href="#linear-gradient"/>
    <linearGradient id="linear-gradient-11" x1="72.52" y1="34.32" x2="69.69" y2="254.56" xlink:href="#linear-gradient"/>
    <linearGradient id="linear-gradient-12" x1="72.52" y1="34.32" x2="69.69" y2="254.56" xlink:href="#linear-gradient"/>
    <linearGradient id="linear-gradient-13" x1="72.52" y1="34.32" x2="69.69" y2="254.56" xlink:href="#linear-gradient"/>
    <linearGradient id="linear-gradient-14" x1="72.52" y1="34.32" x2="69.69" y2="254.56" xlink:href="#linear-gradient"/>
    <linearGradient id="linear-gradient-15" x1="72.52" y1="34.32" x2="69.69" y2="254.56" xlink:href="#linear-gradient"/>
    <linearGradient id="linear-gradient-16" x1="72.52" y1="34.32" x2="69.69" y2="254.56" xlink:href="#linear-gradient"/>
  </defs>
  <g id="Text">
    <g>
      <g>
        <path class="cls-16" d="M55.45,28.15c3.14,0,5.69-2.55,5.69-5.69s-2.55-5.69-5.69-5.69-5.69,2.55-5.69,5.69,2.55,5.69,5.69,5.69ZM55.45,18.81c2.01,0,3.64,1.63,3.64,3.64s-1.63,3.64-3.64,3.64-3.64-1.63-3.64-3.64,1.63-3.64,3.64-3.64Z"/>
        <path class="cls-3" d="M66.34,42.54c2.07,0,3.76-1.69,3.76-3.76s-1.69-3.76-3.76-3.76-3.76,1.69-3.76,3.76,1.69,3.76,3.76,3.76ZM66.34,36.37c1.33,0,2.41,1.08,2.41,2.41s-1.08,2.41-2.41,2.41-2.41-1.08-2.41-2.41,1.08-2.41,2.41-2.41Z"/>
        <path class="cls-7" d="M74.5,25.75c4.82,0,8.74-3.92,8.74-8.74s-3.92-8.74-8.74-8.74-8.74,3.92-8.74,8.74,3.92,8.74,8.74,8.74ZM74.5,10.33c3.69,0,6.69,3,6.69,6.69s-3,6.69-6.69,6.69-6.69-3-6.69-6.69,3-6.69,6.69-6.69Z"/>
        <rect class="cls-6" x="37.09" y="42.36" width="2.05" height="50.33"/>
        <path class="cls-8" d="M34.56,14.77h-.01s59.31,77.22,59.31,77.22c.02.02.04.05.06.07l1.22,1.33c.2.22.47.33.76.33.12,0,.25-.02.37-.07.39-.15.65-.53.65-.96v-50.33h-2.05v47.57l-26.74-34.81,30.53-39.78h-.01s0,0,0,0c.3-.39.27-.95-.07-1.31-1.05-1.11-2.07-2.1-3.11-3C87.44,3.92,77.09,0,66.32,0s-21.12,3.92-29.15,11.02c-.84.73-1.67,1.53-2.54,2.42-.35.36-.38.92-.07,1.32h0ZM38.5,12.54c7.66-6.78,17.54-10.52,27.81-10.52s20.15,3.74,27.82,10.52c.79.69,1.57,1.43,2.37,2.24l-29.67,38.65L36.71,14.22c.61-.6,1.2-1.16,1.8-1.68Z"/>
        <path class="cls-14" d="M132.52,107.17c-.24-.51-.85-.73-1.37-.49-25.2,11.89-45.76-13.81-65.64-38.66-9.55-11.94-19.43-24.28-29.65-32.14-11.65-8.96-22.57-11.08-33.38-6.5-.52.22-.76.82-.54,1.34.22.52.82.76,1.34.54,22.54-9.56,41.04,13.56,60.62,38.03,16.76,20.94,33.98,42.48,54.4,42.47,4.41,0,8.98-1.01,13.72-3.24.51-.24.73-.85.49-1.37Z"/>
      </g>
      <g>
        <path class="cls-11" d="M0,121.56h2.44l7.69,12.34v-12.34h1.96v15.23h-2.31l-7.81-12.33v12.33H0v-15.23Z"/>
        <path class="cls-9" d="M19.77,121.56h2.33l5.53,15.23h-2.26l-1.55-4.56h-6.02l-1.65,4.56h-2.12l5.73-15.23ZM23.16,130.55l-2.31-6.73-2.46,6.73h4.77Z"/>
        <path class="cls-12" d="M29.7,121.56h6.85c1.35,0,2.45.38,3.28,1.15.83.76,1.24,1.84,1.24,3.22,0,1.19-.37,2.22-1.11,3.11-.74.88-1.88,1.32-3.41,1.32h-4.79v6.44h-2.06v-15.23ZM37.75,123.66c-.46-.21-1.08-.32-1.88-.32h-4.11v5.28h4.11c.93,0,1.68-.2,2.26-.59s.87-1.09.87-2.08c0-1.12-.42-1.88-1.24-2.28Z"/>
        <path class="cls-4" d="M56.22,123.74c1.01,1.35,1.51,3.07,1.51,5.17,0,2.27-.58,4.17-1.73,5.67-1.36,1.77-3.29,2.65-5.8,2.65-2.34,0-4.19-.77-5.53-2.32-1.2-1.49-1.79-3.38-1.79-5.66,0-2.06.51-3.82,1.53-5.29,1.31-1.88,3.26-2.82,5.83-2.82s4.68.86,5.97,2.59ZM54.4,133.44c.81-1.3,1.22-2.8,1.22-4.5,0-1.79-.47-3.23-1.41-4.32-.94-1.09-2.22-1.64-3.84-1.64s-2.86.54-3.86,1.62-1.49,2.68-1.49,4.79c0,1.69.43,3.11,1.28,4.27.85,1.16,2.24,1.74,4.15,1.74s3.13-.65,3.95-1.95Z"/>
        <path class="cls-13" d="M60.19,121.56h2.06v13.42h7.72v1.81h-9.78v-15.23Z"/>
        <path class="cls-5" d="M72.47,121.56h2.08v15.23h-2.08v-15.23Z"/>
        <path class="cls-2" d="M83.8,121.56h2.44l7.69,12.34v-12.34h1.96v15.23h-2.31l-7.81-12.33v12.33h-1.97v-15.23Z"/>
        <path class="cls-10" d="M99.33,121.56h11.11v1.87h-9.09v4.62h8.41v1.76h-8.41v5.16h9.25v1.81h-11.26v-15.23Z"/>
        <path class="cls-1" d="M113.55,121.56h7.05c1.16,0,2.12.17,2.87.51,1.43.65,2.15,1.85,2.15,3.6,0,.91-.19,1.66-.56,2.24-.38.58-.9,1.05-1.58,1.4.59.24,1.04.56,1.34.95.3.39.47,1.03.5,1.92l.07,2.04c.02.58.07,1.01.15,1.3.12.48.35.79.66.93v.34h-2.53c-.07-.13-.12-.3-.17-.51-.04-.21-.08-.61-.1-1.2l-.12-2.54c-.05-1-.42-1.66-1.11-2-.39-.19-1.01-.28-1.86-.28h-4.7v6.53h-2.06v-15.23ZM120.38,128.54c.97,0,1.73-.19,2.3-.58.56-.39.84-1.09.84-2.09,0-1.09-.39-1.83-1.18-2.22-.42-.21-.98-.31-1.69-.31h-5.04v5.21h4.77Z"/>
        <path class="cls-15" d="M141.19,123.74c1.01,1.35,1.51,3.07,1.51,5.17,0,2.27-.58,4.17-1.73,5.67-1.36,1.77-3.29,2.65-5.8,2.65-2.34,0-4.19-.77-5.53-2.32-1.2-1.49-1.79-3.38-1.79-5.66,0-2.06.51-3.82,1.53-5.29,1.31-1.88,3.26-2.82,5.83-2.82s4.68.86,5.97,2.59ZM139.37,133.44c.81-1.3,1.22-2.8,1.22-4.5,0-1.79-.47-3.23-1.41-4.32-.94-1.09-2.22-1.64-3.84-1.64s-2.86.54-3.86,1.62-1.49,2.68-1.49,4.79c0,1.69.43,3.11,1.28,4.27.85,1.16,2.24,1.74,4.15,1.74s3.13-.65,3.95-1.95Z"/>
      </g>
    </g>
  </g>
</svg>